<mxfile host="app.diagrams.net" modified="2020-12-02T21:07:33.576Z" agent="5.0 (Macintosh; Intel Mac OS X 10_15_4) AppleWebKit/537.36 (KHTML, like Gecko) Chrome/87.0.4280.67 Safari/537.36" etag="wzHYqSWOm37xYQWvyDQl" version="13.10.6" type="github">
  <diagram id="RbTIwIGQ5fl6sntlEerJ" name="Page-1">
    <mxGraphModel dx="3144" dy="2184" grid="1" gridSize="10" guides="1" tooltips="1" connect="1" arrows="1" fold="1" page="1" pageScale="1" pageWidth="700" pageHeight="1400" math="0" shadow="0">
      <root>
        <mxCell id="0" />
        <mxCell id="1" parent="0" />
        <mxCell id="DRQNI8Bb4MIt4cv_ydg1-3" style="edgeStyle=orthogonalEdgeStyle;rounded=0;orthogonalLoop=1;jettySize=auto;html=1;exitX=0.5;exitY=1;exitDx=0;exitDy=0;" parent="1" source="DRQNI8Bb4MIt4cv_ydg1-1" edge="1">
          <mxGeometry relative="1" as="geometry">
            <mxPoint x="440" y="320" as="targetPoint" />
          </mxGeometry>
        </mxCell>
        <mxCell id="DRQNI8Bb4MIt4cv_ydg1-1" value="Start" style="rounded=1;whiteSpace=wrap;html=1;arcSize=50;" parent="1" vertex="1">
          <mxGeometry x="380" y="200" width="120" height="60" as="geometry" />
        </mxCell>
        <mxCell id="DRQNI8Bb4MIt4cv_ydg1-2" value="SaveRecipeIntent" style="text;html=1;align=center;verticalAlign=middle;resizable=0;points=[];autosize=1;fontStyle=1" parent="1" vertex="1">
          <mxGeometry x="380" y="160" width="120" height="20" as="geometry" />
        </mxCell>
        <mxCell id="DRQNI8Bb4MIt4cv_ydg1-11" style="edgeStyle=orthogonalEdgeStyle;rounded=0;orthogonalLoop=1;jettySize=auto;html=1;exitX=0.5;exitY=1;exitDx=0;exitDy=0;" parent="1" source="DRQNI8Bb4MIt4cv_ydg1-4" target="DRQNI8Bb4MIt4cv_ydg1-10" edge="1">
          <mxGeometry relative="1" as="geometry" />
        </mxCell>
        <mxCell id="DRQNI8Bb4MIt4cv_ydg1-12" style="edgeStyle=orthogonalEdgeStyle;rounded=0;orthogonalLoop=1;jettySize=auto;html=1;exitX=0;exitY=0.5;exitDx=0;exitDy=0;" parent="1" source="DRQNI8Bb4MIt4cv_ydg1-4" target="DRQNI8Bb4MIt4cv_ydg1-9" edge="1">
          <mxGeometry relative="1" as="geometry" />
        </mxCell>
        <mxCell id="DRQNI8Bb4MIt4cv_ydg1-4" value="Recipe name?" style="rhombus;whiteSpace=wrap;html=1;" parent="1" vertex="1">
          <mxGeometry x="380" y="320" width="120" height="80" as="geometry" />
        </mxCell>
        <mxCell id="DRQNI8Bb4MIt4cv_ydg1-22" style="edgeStyle=orthogonalEdgeStyle;rounded=0;orthogonalLoop=1;jettySize=auto;html=1;exitX=0.5;exitY=1;exitDx=0;exitDy=0;" parent="1" source="DRQNI8Bb4MIt4cv_ydg1-5" target="DRQNI8Bb4MIt4cv_ydg1-6" edge="1">
          <mxGeometry relative="1" as="geometry" />
        </mxCell>
        <mxCell id="DRQNI8Bb4MIt4cv_ydg1-5" value="Confirm recipe&amp;nbsp;&lt;br&gt;user wants to save" style="rounded=0;whiteSpace=wrap;html=1;" parent="1" vertex="1">
          <mxGeometry x="380" y="620" width="120" height="60" as="geometry" />
        </mxCell>
        <mxCell id="DRQNI8Bb4MIt4cv_ydg1-23" style="edgeStyle=orthogonalEdgeStyle;rounded=0;orthogonalLoop=1;jettySize=auto;html=1;exitX=0.5;exitY=1;exitDx=0;exitDy=0;" parent="1" source="DRQNI8Bb4MIt4cv_ydg1-6" target="DRQNI8Bb4MIt4cv_ydg1-8" edge="1">
          <mxGeometry relative="1" as="geometry" />
        </mxCell>
        <mxCell id="DRQNI8Bb4MIt4cv_ydg1-26" style="edgeStyle=orthogonalEdgeStyle;rounded=0;orthogonalLoop=1;jettySize=auto;html=1;exitX=0;exitY=0.5;exitDx=0;exitDy=0;" parent="1" source="DRQNI8Bb4MIt4cv_ydg1-6" target="DRQNI8Bb4MIt4cv_ydg1-25" edge="1">
          <mxGeometry relative="1" as="geometry" />
        </mxCell>
        <mxCell id="DRQNI8Bb4MIt4cv_ydg1-6" value="Save recipe?" style="rhombus;whiteSpace=wrap;html=1;" parent="1" vertex="1">
          <mxGeometry x="380" y="740" width="120" height="80" as="geometry" />
        </mxCell>
        <mxCell id="DRQNI8Bb4MIt4cv_ydg1-30" style="edgeStyle=orthogonalEdgeStyle;rounded=0;orthogonalLoop=1;jettySize=auto;html=1;" parent="1" source="DRQNI8Bb4MIt4cv_ydg1-7" target="DRQNI8Bb4MIt4cv_ydg1-29" edge="1">
          <mxGeometry relative="1" as="geometry" />
        </mxCell>
        <mxCell id="DRQNI8Bb4MIt4cv_ydg1-7" value="Confirm recipe is&lt;br&gt;saved" style="shape=document;whiteSpace=wrap;html=1;boundedLbl=1;" parent="1" vertex="1">
          <mxGeometry x="380" y="1010" width="120" height="80" as="geometry" />
        </mxCell>
        <mxCell id="DRQNI8Bb4MIt4cv_ydg1-28" style="edgeStyle=orthogonalEdgeStyle;rounded=0;orthogonalLoop=1;jettySize=auto;html=1;exitX=0.5;exitY=1;exitDx=0;exitDy=0;" parent="1" source="DRQNI8Bb4MIt4cv_ydg1-8" target="DRQNI8Bb4MIt4cv_ydg1-7" edge="1">
          <mxGeometry relative="1" as="geometry" />
        </mxCell>
        <mxCell id="DRQNI8Bb4MIt4cv_ydg1-8" value="Store recipe w/&lt;br&gt;other&lt;br&gt;saved recipes" style="shape=parallelogram;perimeter=parallelogramPerimeter;whiteSpace=wrap;html=1;fixedSize=1;" parent="1" vertex="1">
          <mxGeometry x="380" y="890" width="120" height="60" as="geometry" />
        </mxCell>
        <mxCell id="DRQNI8Bb4MIt4cv_ydg1-15" style="edgeStyle=orthogonalEdgeStyle;rounded=0;orthogonalLoop=1;jettySize=auto;html=1;exitX=0.5;exitY=0;exitDx=0;exitDy=0;" parent="1" source="DRQNI8Bb4MIt4cv_ydg1-9" edge="1">
          <mxGeometry relative="1" as="geometry">
            <mxPoint x="440" y="290" as="targetPoint" />
            <Array as="points">
              <mxPoint x="220" y="290" />
              <mxPoint x="380" y="290" />
            </Array>
          </mxGeometry>
        </mxCell>
        <mxCell id="DRQNI8Bb4MIt4cv_ydg1-9" value="Which recipe?" style="rounded=0;whiteSpace=wrap;html=1;" parent="1" vertex="1">
          <mxGeometry x="160" y="330" width="120" height="60" as="geometry" />
        </mxCell>
        <mxCell id="DRQNI8Bb4MIt4cv_ydg1-14" style="edgeStyle=orthogonalEdgeStyle;rounded=0;orthogonalLoop=1;jettySize=auto;html=1;exitX=0.5;exitY=1;exitDx=0;exitDy=0;" parent="1" source="DRQNI8Bb4MIt4cv_ydg1-10" target="DRQNI8Bb4MIt4cv_ydg1-5" edge="1">
          <mxGeometry relative="1" as="geometry" />
        </mxCell>
        <mxCell id="DRQNI8Bb4MIt4cv_ydg1-19" style="edgeStyle=orthogonalEdgeStyle;rounded=0;orthogonalLoop=1;jettySize=auto;html=1;exitX=0;exitY=0.5;exitDx=0;exitDy=0;" parent="1" source="DRQNI8Bb4MIt4cv_ydg1-10" target="DRQNI8Bb4MIt4cv_ydg1-17" edge="1">
          <mxGeometry relative="1" as="geometry" />
        </mxCell>
        <mxCell id="DRQNI8Bb4MIt4cv_ydg1-10" value="Recipe found&lt;br&gt;in database?" style="rhombus;whiteSpace=wrap;html=1;" parent="1" vertex="1">
          <mxGeometry x="380" y="470" width="120" height="80" as="geometry" />
        </mxCell>
        <mxCell id="DRQNI8Bb4MIt4cv_ydg1-13" value="Yes" style="text;html=1;align=center;verticalAlign=middle;resizable=0;points=[];autosize=1;fillColor=#ffffff;" parent="1" vertex="1">
          <mxGeometry x="420" y="420" width="40" height="20" as="geometry" />
        </mxCell>
        <mxCell id="DRQNI8Bb4MIt4cv_ydg1-16" value="No" style="text;html=1;align=center;verticalAlign=middle;resizable=0;points=[];autosize=1;fillColor=#ffffff;" parent="1" vertex="1">
          <mxGeometry x="321" y="350" width="30" height="20" as="geometry" />
        </mxCell>
        <mxCell id="DRQNI8Bb4MIt4cv_ydg1-17" value="Recipe not found" style="shape=document;whiteSpace=wrap;html=1;boundedLbl=1;fillColor=#ffffff;" parent="1" vertex="1">
          <mxGeometry x="160" y="470" width="120" height="80" as="geometry" />
        </mxCell>
        <mxCell id="DRQNI8Bb4MIt4cv_ydg1-20" value="No" style="text;html=1;align=center;verticalAlign=middle;resizable=0;points=[];autosize=1;fillColor=#ffffff;" parent="1" vertex="1">
          <mxGeometry x="321" y="500" width="30" height="20" as="geometry" />
        </mxCell>
        <mxCell id="DRQNI8Bb4MIt4cv_ydg1-21" value="Yes" style="text;html=1;align=center;verticalAlign=middle;resizable=0;points=[];autosize=1;fillColor=#ffffff;" parent="1" vertex="1">
          <mxGeometry x="420" y="570" width="40" height="20" as="geometry" />
        </mxCell>
        <mxCell id="DRQNI8Bb4MIt4cv_ydg1-24" value="Yes" style="text;html=1;align=center;verticalAlign=middle;resizable=0;points=[];autosize=1;fillColor=#ffffff;" parent="1" vertex="1">
          <mxGeometry x="420" y="840" width="40" height="20" as="geometry" />
        </mxCell>
        <mxCell id="DRQNI8Bb4MIt4cv_ydg1-25" value="CancelIntent" style="shape=process;whiteSpace=wrap;html=1;backgroundOutline=1;fillColor=#ffffff;" parent="1" vertex="1">
          <mxGeometry x="160" y="750" width="120" height="60" as="geometry" />
        </mxCell>
        <mxCell id="DRQNI8Bb4MIt4cv_ydg1-27" value="No" style="text;html=1;align=center;verticalAlign=middle;resizable=0;points=[];autosize=1;fillColor=#ffffff;" parent="1" vertex="1">
          <mxGeometry x="321" y="770" width="30" height="20" as="geometry" />
        </mxCell>
        <mxCell id="DRQNI8Bb4MIt4cv_ydg1-29" value="End" style="rounded=1;whiteSpace=wrap;html=1;fillColor=#ffffff;arcSize=50;" parent="1" vertex="1">
          <mxGeometry x="380" y="1150" width="120" height="60" as="geometry" />
        </mxCell>
      </root>
    </mxGraphModel>
  </diagram>
</mxfile>
